<?xml version="1.0" standalone="no"?>
<!DOCTYPE svg PUBLIC "-//W3C//DTD SVG 20010904//EN"
 "http://www.w3.org/TR/2001/REC-SVG-20010904/DTD/svg10.dtd">
<svg version="1.0" xmlns="http://www.w3.org/2000/svg"
 width="1280.000000pt" height="1280.000000pt" viewBox="0 0 1280.000000 1280.000000"
 preserveAspectRatio="xMidYMid meet">
<metadata>
Created by potrace 1.14, written by Peter Selinger 2001-2017
</metadata>
<g transform="translate(0.000000,1280.000000) scale(0.100000,-0.100000)"
fill="#000000" stroke="none">
<path d="M5266 10575 c-20 -105 -129 -248 -210 -275 -41 -13 -46 -26 -13 -36
39 -12 115 -74 152 -125 37 -49 74 -136 76 -174 0 -11 9 5 18 35 39 121 106
206 202 253 l51 26 -44 21 c-97 45 -178 144 -208 252 l-17 63 -7 -40z"/>
<path d="M3141 10449 c-121 -37 -215 -153 -224 -279 -10 -134 59 -256 183
-318 l54 -28 1 -1271 0 -1271 -72 -15 c-535 -116 -817 -696 -578 -1189 23 -48
29 -70 21 -76 -6 -4 -58 -32 -116 -61 -58 -30 -109 -57 -115 -61 -5 -4 -46
-27 -90 -51 -192 -103 -576 -342 -742 -463 -87 -63 -290 -221 -373 -289 -109
-91 -350 -329 -415 -408 -27 -34 -54 -67 -60 -73 -20 -19 -120 -159 -160 -221
-87 -137 -178 -348 -204 -475 -6 -30 -14 -66 -16 -80 -3 -14 -7 -68 -9 -120
-8 -219 41 -390 162 -575 67 -102 184 -228 272 -294 19 -14 37 -29 40 -32 18
-21 205 -137 310 -191 114 -59 315 -144 430 -181 104 -35 301 -91 351 -102 8
-2 44 -10 80 -18 80 -19 155 -35 194 -41 17 -2 66 -11 110 -20 72 -13 145 -24
275 -41 25 -4 56 -8 70 -10 14 -2 54 -7 90 -10 36 -3 79 -8 95 -10 30 -4 152
-15 235 -20 377 -27 1056 -27 1465 0 22 2 87 6 145 9 58 4 116 9 130 11 14 2
67 7 119 10 52 4 102 8 111 10 9 2 50 6 91 9 41 4 85 9 99 11 14 2 50 7 80 10
30 3 66 8 80 10 14 3 48 7 75 10 28 3 66 7 85 10 19 3 52 7 72 9 21 3 53 8 70
11 18 3 49 7 68 10 38 4 258 38 355 55 33 6 76 13 95 16 19 3 67 12 105 19 39
8 86 17 105 20 40 7 375 74 405 81 11 3 31 7 45 10 14 3 45 10 70 15 25 6 52
12 60 14 8 2 76 17 150 35 74 17 142 33 150 35 113 25 567 146 715 190 434
130 1002 318 1130 374 11 5 99 39 195 77 195 75 461 186 588 245 46 22 86 39
88 39 3 0 105 49 227 109 302 148 658 343 857 469 237 151 550 370 624 437 6
6 31 26 56 45 25 19 47 37 50 41 3 3 39 35 80 70 153 131 356 346 467 496 66
89 103 142 103 148 0 2 12 21 26 42 32 47 124 237 124 255 0 8 4 18 9 23 11
11 56 179 66 244 4 25 8 81 10 127 2 72 -1 106 -20 229 -8 55 -54 177 -96 254
-157 293 -471 534 -939 721 -153 62 -556 178 -704 204 -16 3 -52 10 -80 15
-65 13 -102 20 -146 26 -19 3 -45 8 -57 10 -12 3 -46 8 -75 11 -29 3 -55 7
-59 9 -3 2 -39 7 -80 11 -40 3 -76 8 -79 9 -3 2 -41 6 -85 10 -44 4 -91 8
-104 10 -13 3 -72 7 -130 11 -58 3 -122 8 -141 10 -84 7 -422 17 -619 17
l-213 0 -15 36 c-134 326 -371 679 -633 942 -152 152 -185 181 -341 298 -453
340 -996 545 -1561 588 -192 14 -535 3 -658 -22 -14 -2 -41 -7 -60 -10 -19 -3
-57 -10 -85 -15 -27 -6 -61 -12 -74 -15 -186 -35 -511 -153 -712 -257 -131
-69 -273 -152 -297 -176 -8 -6 -23 -17 -35 -24 -33 -17 -172 -123 -252 -192
-110 -94 -283 -271 -376 -386 -93 -115 -91 -113 -183 -250 -136 -203 -242
-419 -328 -665 l-38 -110 0 1257 0 1257 55 25 c64 29 127 92 157 156 31 67 31
197 -1 264 -29 62 -93 125 -156 155 -57 27 -168 37 -224 20z m167 -163 c117
-60 114 -235 -5 -291 -43 -21 -127 -16 -165 9 -36 24 -68 87 -68 136 0 124
129 203 238 146z m6647 -3441 c255 -64 491 -160 659 -268 76 -48 169 -142 200
-201 43 -82 31 -174 -44 -321 -165 -324 -569 -686 -1170 -1047 -222 -133 -525
-290 -800 -413 -124 -56 -409 -175 -418 -175 -3 0 10 17 30 38 47 49 171 208
240 307 98 141 202 333 289 530 40 92 110 295 101 295 -3 0 -1 5 4 10 6 6 50
13 98 15 198 9 366 74 511 198 187 161 285 367 291 612 4 144 -24 274 -85 393
-23 45 -25 52 -13 52 4 0 52 -11 107 -25z m-6654 -1241 c3 -2 12 -25 19 -51 7
-27 36 -109 65 -183 133 -345 337 -674 582 -940 18 -19 40 -55 49 -80 20 -52
103 -226 137 -285 80 -142 201 -301 318 -421 38 -39 46 -53 35 -57 -18 -7
-823 -1 -876 6 -19 3 -75 8 -124 12 -49 4 -101 8 -115 10 -14 2 -51 6 -81 9
-30 4 -71 8 -90 11 -19 2 -57 7 -85 10 -27 3 -72 10 -100 15 -27 5 -66 12 -85
15 -412 68 -852 234 -1020 385 -14 12 -34 30 -45 39 -28 22 -90 102 -100 126
-27 72 -13 158 47 284 151 316 535 668 1138 1039 l115 71 105 -6 c58 -3 108
-7 111 -9z"/>
<path d="M8624 10171 c-56 -14 -127 -56 -172 -101 -155 -155 -128 -423 55
-546 245 -164 574 21 558 314 -5 92 -55 199 -120 254 -27 23 -109 68 -137 75
-40 10 -152 12 -184 4z"/>
<path d="M3971 9794 c-1 -43 -51 -115 -103 -150 l-45 -30 39 -19 c46 -22 97
-90 105 -141 l6 -35 17 51 c19 55 65 110 112 133 l28 14 -42 27 c-50 31 -84
77 -103 138 -13 40 -14 41 -14 12z"/>
<path d="M1879 9437 c-97 -41 -157 -95 -197 -179 -101 -207 21 -456 248 -507
65 -15 154 -5 216 23 207 95 279 331 159 521 -65 104 -157 156 -285 162 -73 3
-93 0 -141 -20z"/>
<path d="M10740 9251 c-17 -51 -74 -119 -114 -136 l-30 -13 30 -15 c46 -24 92
-76 110 -124 l17 -44 12 35 c19 54 42 84 90 118 l44 31 -39 26 c-50 34 -80 72
-94 123 l-12 40 -14 -41z"/>
<path d="M10037 8742 c-16 -94 -107 -212 -199 -255 -26 -12 -47 -24 -48 -27 0
-4 16 -12 35 -19 45 -16 139 -102 169 -155 13 -22 29 -59 36 -81 6 -22 14 -47
17 -55 3 -8 11 10 19 40 27 99 112 204 201 246 24 10 43 21 43 24 0 4 -16 12
-35 19 -82 29 -192 166 -212 261 -8 44 -20 45 -26 2z"/>
<path d="M1721 7570 c-7 -33 -20 -65 -27 -71 -8 -6 -14 -17 -14 -23 0 -25 -99
-122 -149 -146 -28 -14 -50 -27 -51 -30 0 -3 25 -18 55 -34 90 -47 176 -164
192 -262 7 -40 12 -39 19 2 15 93 109 218 200 265 24 13 44 27 44 30 0 3 -18
14 -41 24 -87 39 -188 171 -202 263 -8 50 -12 47 -26 -18z"/>
</g>
</svg>
