<?xml version="1.0" encoding="UTF-8" standalone="no" ?>
<!DOCTYPE svg PUBLIC "-//W3C//DTD SVG 1.1//EN" "http://www.w3.org/Graphics/SVG/1.1/DTD/svg11.dtd">
<svg xmlns="http://www.w3.org/2000/svg" xmlns:xlink="http://www.w3.org/1999/xlink" version="1.1" width="1280" height="1024" viewBox="0 0 1280 1024" xml:space="preserve">
<desc>Created with Fabric.js 5.3.0</desc>
<defs>
</defs>
<g transform="matrix(1 0 0 1 640 512)" id="background-logo"  >
<rect style="stroke: none; stroke-width: 0; stroke-dasharray: none; stroke-linecap: butt; stroke-dashoffset: 0; stroke-linejoin: miter; stroke-miterlimit: 4; fill: rgb(255,255,255); fill-opacity: 0; fill-rule: nonzero; opacity: 1;"  paint-order="stroke"  x="-640" y="-512" rx="0" ry="0" width="1280" height="1024" />
</g>
<g transform="matrix(3.9587157876070043 0 0 3.9587157876070043 640.4642960423037 512.7016029083699)" id="logo-logo"  >
<g style=""  paint-order="stroke"   >
		<g transform="matrix(0.45457149583842943 0 0 0.45457149583842943 -5.561932920785807 -7.613484411986434)"  >
<g style=""  paint-order="stroke"   >
		<g transform="matrix(1 0 0 1 -164.07801073540583 -98.05129384115071)"  >
<path style="stroke: none; stroke-width: 1; stroke-dasharray: none; stroke-linecap: butt; stroke-dashoffset: 0; stroke-linejoin: miter; stroke-miterlimit: 4; fill: rgb(0,0,0); fill-rule: nonzero; opacity: 1;"  paint-order="stroke"  transform=" translate(-359.3, -415.54999999999995)" d="M 363.6 330.2 L 363.6 500.9 L 355 500.9 L 355 330.2 C 357.6 331.6 360.9 331.6 363.6 330.2 z" stroke-linecap="round" />
</g>
		<g transform="matrix(1 0 0 1 -164.05754585010106 -191.53879384115066)"  >
<path style="stroke: none; stroke-width: 1; stroke-dasharray: none; stroke-linecap: butt; stroke-dashoffset: 0; stroke-linejoin: miter; stroke-miterlimit: 4; fill: rgb(0,0,0); fill-rule: nonzero; opacity: 1;"  paint-order="stroke"  transform=" translate(-359.3204648853048, -322.0625)" d="M 359.3 304.3 C 349.5 304.3 341.5 312.3 341.6 322.1 C 341.6 330.20000000000005 347.1 337.3 355 339.3 C 357.8 340 360.8 340 363.6 339.3 C 373.1 336.90000000000003 378.90000000000003 327.2 376.5 317.7 C 374.5 309.9 367.4 304.4 359.3 304.3 z M 363.6 330.2 C 360.90000000000003 331.59999999999997 357.70000000000005 331.59999999999997 355 330.2 C 350.5 327.8 348.9 322.3 351.2 317.8 C 353.59999999999997 313.3 359.09999999999997 311.7 363.59999999999997 314 C 368.09999999999997 316.4 369.7 321.9 367.4 326.4 C 366.5 328 365.2 329.3 363.6 330.2 z" stroke-linecap="round" />
</g>
		<g transform="matrix(1 0 0 1 -0.17801073540579182 88.19870615884929)"  >
<ellipse style="stroke: none; stroke-width: 1; stroke-dasharray: none; stroke-linecap: butt; stroke-dashoffset: 0; stroke-linejoin: miter; stroke-miterlimit: 4; fill: rgb(155,189,198); fill-rule: nonzero; opacity: 1;"  paint-order="stroke"  cx="0" cy="0" rx="125.8" ry="118.7" />
</g>
		<g transform="matrix(1 0 0 1 -0.2387802508645791 88.14963583076428)"  >
<path style="stroke: none; stroke-width: 1; stroke-dasharray: none; stroke-linecap: butt; stroke-dashoffset: 0; stroke-linejoin: miter; stroke-miterlimit: 4; fill: rgb(0,0,0); fill-rule: nonzero; opacity: 1;"  paint-order="stroke"  transform=" translate(-523.1392304845413, -601.750929671915)" d="M 650.9 590 C 650.8 588.7 650.6 587.3 650.4 586 C 650.1999999999999 584.7 650 583.3 649.8 581.9 L 649.8 581.9 C 649.5999999999999 580.6 649.3 579.4 649.0999999999999 578.1 C 645.9999999999999 563.5 640.0999999999999 549.6 631.6999999999999 537.2 C 626.9999999999999 530.2 621.5999999999999 523.7 615.4999999999999 517.8000000000001 C 606.3999999999999 508.9000000000001 596.0999999999999 501.50000000000006 584.7999999999998 495.6000000000001 C 573.4999999999999 489.7000000000001 561.4999999999999 485.6000000000001 548.9999999999999 483.1000000000001 C 540.4999999999999 481.4000000000001 531.7999999999998 480.6000000000001 523.0999999999999 480.6000000000001 C 492.8999999999999 480.50000000000006 463.4999999999999 490.7000000000001 439.8999999999999 509.6000000000001 C 429.8999999999999 517.6000000000001 421.19999999999993 527.2 414.0999999999999 537.9000000000001 C 405.9999999999999 550.1000000000001 400.2999999999999 563.7 397.2999999999999 578.0000000000001 C 396.9999999999999 579.3000000000001 396.7999999999999 580.5000000000001 396.5999999999999 581.8000000000001 L 396.5999999999999 581.8000000000001 C 396.3999999999999 583.1 396.0999999999999 584.5000000000001 395.9999999999999 585.9000000000001 C 395.89999999999986 587.3000000000001 395.5999999999999 588.6000000000001 395.4999999999999 589.9000000000001 C 395.0999999999999 593.8000000000001 394.89999999999986 597.8000000000001 394.89999999999986 601.8000000000001 C 394.89999999999986 611.1 395.9999999999999 620.3000000000001 398.1999999999999 629.3000000000001 C 398.6999999999999 631.3000000000001 399.1999999999999 633.3000000000001 399.7999999999999 635.2 C 400.3999999999999 637.1 400.9999999999999 639 401.6999999999999 640.9000000000001 C 408.7999999999999 660.3000000000001 420.7999999999999 677.6000000000001 436.39999999999986 691.0000000000001 C 460.4999999999999 711.7000000000002 491.29999999999984 723.1000000000001 523.0999999999999 722.9000000000001 C 576.9999999999999 722.9000000000001 623.3 691.3000000000001 642.1999999999999 646.7 C 642.9999999999999 644.8000000000001 643.8 642.8000000000001 644.4999999999999 640.8000000000001 C 645.1999999999999 638.9000000000001 645.7999999999998 637.0000000000001 646.3999999999999 635.1 C 646.9999999999999 633.1999999999999 647.4999999999999 631.2 647.9999999999999 629.2 C 650.1999999999999 620.2 651.2999999999998 611 651.2999999999998 601.7 C 651.5 597.9 651.3 593.9 650.9 590 z M 638 644.3 C 637.3 646 636.5 647.6999999999999 635.7 649.3 C 635.6 649.5999999999999 635.4000000000001 649.8 635.3000000000001 650.0999999999999 C 615.8000000000001 690.0999999999999 572.9000000000001 717.9999999999999 523.2 717.9999999999999 C 494.40000000000003 718.0999999999999 466.40000000000003 708.4999999999999 443.80000000000007 690.5999999999999 C 430.00000000000006 679.6999999999999 418.80000000000007 665.8999999999999 411.00000000000006 650.0999999999999 C 410.1000000000001 648.1999999999999 409.20000000000005 646.1999999999999 408.40000000000003 644.3 C 407.6 642.3 406.8 640.3 406.1 638.3 C 402 626.5999999999999 399.90000000000003 614.3 399.90000000000003 601.8 C 399.90000000000003 600.0999999999999 399.90000000000003 598.5 400.00000000000006 596.8 C 400.1000000000001 595.5 400.1000000000001 594.0999999999999 400.30000000000007 592.8 C 400.50000000000006 591.5 400.6000000000001 590.0999999999999 400.70000000000005 588.6999999999999 C 400.90000000000003 586.9 401.20000000000005 585.0999999999999 401.50000000000006 583.3 C 404.50000000000006 565.5999999999999 411.80000000000007 549 422.6000000000001 534.6999999999999 C 431.50000000000006 522.9999999999999 442.4000000000001 512.9999999999999 454.80000000000007 505.19999999999993 C 475.30000000000007 492.29999999999995 499.00000000000006 485.5999999999999 523.2 485.5999999999999 C 526.7 485.5999999999999 530.2 485.69999999999993 533.6 485.9999999999999 C 548.2 487.0999999999999 562.4 490.6999999999999 575.7 496.6999999999999 C 591.1 503.4999999999999 605 513.4999999999999 616.4000000000001 525.7999999999998 C 621.4000000000001 531.2999999999998 626.0000000000001 537.2999999999998 629.9000000000001 543.5999999999998 C 637.4000000000001 555.6999999999998 642.5000000000001 569.1999999999998 644.9000000000001 583.2999999999998 C 645.2 585.0999999999998 645.5000000000001 586.8999999999999 645.7 588.7999999999998 C 645.9000000000001 590.0999999999998 646 591.4999999999999 646.1 592.7999999999998 C 646.2 594.0999999999998 646.3000000000001 595.4999999999999 646.4 596.7999999999998 C 646.5 598.4999999999999 646.5 600.0999999999998 646.5 601.7999999999998 C 646.5 614.1999999999998 644.4 626.4999999999999 640.3 638.2999999999998 C 639.6 640.3 638.8 642.3 638 644.3 z" stroke-linecap="round" />
</g>
		<g transform="matrix(1 0 0 1 -0.17801073540579182 13.598706158849382)"  >
<circle style="stroke: none; stroke-width: 1; stroke-dasharray: none; stroke-linecap: butt; stroke-dashoffset: 0; stroke-linejoin: miter; stroke-miterlimit: 4; fill: rgb(248,253,255); fill-rule: nonzero; opacity: 1;"  paint-order="stroke"  cx="0" cy="0" r="164" />
</g>
		<g transform="matrix(1 0 0 1 -0.2971342640714738 13.548706158849427)"  >
<path style="stroke: none; stroke-width: 1; stroke-dasharray: none; stroke-linecap: butt; stroke-dashoffset: 0; stroke-linejoin: miter; stroke-miterlimit: 4; fill: rgb(0,0,0); fill-rule: nonzero; opacity: 1;"  paint-order="stroke"  transform=" translate(-523.0808764713344, -527.1500000000001)" d="M 686.1 492.9 C 685.6 490.5 685 488 684.4 485.59999999999997 C 684.1999999999999 484.79999999999995 684 483.9 683.6999999999999 483.09999999999997 C 683.3999999999999 482.29999999999995 683.1999999999999 481.4 682.9999999999999 480.59999999999997 C 681.8999999999999 476.9 680.7999999999998 473.29999999999995 679.3999999999999 469.79999999999995 C 655.9999999999999 406.19999999999993 594.7999999999998 360.69999999999993 523.0999999999999 360.69999999999993 C 447.69999999999993 360.69999999999993 383.8999999999999 411.0999999999999 363.3999999999999 479.99999999999994 C 363.2999999999999 480.19999999999993 363.2999999999999 480.3999999999999 363.19999999999993 480.69999999999993 C 362.8999999999999 481.49999999999994 362.69999999999993 482.3999999999999 362.49999999999994 483.19999999999993 C 362.29999999999995 483.99999999999994 361.99999999999994 484.8999999999999 361.79999999999995 485.69999999999993 C 360.49999999999994 490.69999999999993 359.4 495.79999999999995 358.59999999999997 500.8999999999999 C 357.2 509.5999999999999 356.49999999999994 518.3999999999999 356.49999999999994 527.1999999999999 C 356.49999999999994 531.4999999999999 356.69999999999993 535.8 356.99999999999994 540.0999999999999 C 357.59999999999997 547.6999999999999 358.69999999999993 555.1999999999999 360.29999999999995 562.5999999999999 C 360.69999999999993 564.6999999999999 361.19999999999993 566.6999999999999 361.79999999999995 568.8 C 361.99999999999994 569.5999999999999 362.19999999999993 570.5 362.49999999999994 571.3 C 362.79999999999995 572.0999999999999 362.99999999999994 573 363.19999999999993 573.8 C 370.49999999999994 598.9 383.69999999999993 622 401.5999999999999 641 C 403.0999999999999 642.5 404.4999999999999 644.1 405.9999999999999 645.5 C 407.4999999999999 647 409.0999999999999 648.5 410.89999999999986 650.1 C 474.39999999999986 708.1 571.6999999999998 708.1 635.0999999999999 650.1 L 636.3 649 C 637.5999999999999 647.8 638.8 646.7 640 645.4 C 641.5 643.9 643 642.4 644.4 640.9 C 662.3 621.8 675.5 598.8 682.8 573.6999999999999 C 683.0999999999999 572.9 683.3 571.9999999999999 683.5 571.1999999999999 C 683.7 570.4 684 569.4999999999999 684.2 568.6999999999999 C 690.8 544 691.4 518 686.1 492.9 L 686.1 492.9 z M 678.6 571.3 C 678.4 572.0999999999999 678.1 573 677.9 573.8 C 671.8 594.0999999999999 661.6999999999999 613 648.1999999999999 629.4 C 646.9999999999999 630.9 645.6999999999999 632.4 644.4 633.9 C 643.1 635.4 641.8 636.9 640.3 638.4 C 635 644 629.3 649.1999999999999 623.3 654 C 557.8 705.9 463.59999999999997 699.1 406.19999999999993 638.4 C 404.79999999999995 636.9 403.3999999999999 635.4 402.0999999999999 633.9 C 400.7999999999999 632.4 399.4999999999999 630.9 398.2999999999999 629.4 C 384.7999999999999 613 374.7999999999999 594.1 368.5999999999999 573.8 C 368.2999999999999 573 368.0999999999999 572.0999999999999 367.8999999999999 571.3 C 367.69999999999993 570.5 367.3999999999999 569.5999999999999 367.19999999999993 568.8 C 366.3999999999999 566 365.79999999999995 563.0999999999999 365.19999999999993 560.1999999999999 C 363.69999999999993 552.9 362.69999999999993 545.4999999999999 362.19999999999993 538.0999999999999 C 361.99999999999994 534.4999999999999 361.79999999999995 530.8999999999999 361.79999999999995 527.3 C 361.79999999999995 513.3 363.59999999999997 499.29999999999995 367.19999999999993 485.79999999999995 C 367.3999999999999 484.99999999999994 367.69999999999993 484.09999999999997 367.8999999999999 483.29999999999995 C 368.0999999999999 482.49999999999994 368.3999999999999 481.59999999999997 368.5999999999999 480.79999999999995 C 388.5999999999999 414.4 450.3999999999999 365.9 523.1999999999999 365.9 C 592.0999999999999 365.9 650.9999999999999 409.29999999999995 674.1999999999999 470.09999999999997 C 675.4999999999999 473.59999999999997 676.8 477.2 677.9 480.79999999999995 C 678.1999999999999 481.59999999999997 678.4 482.49999999999994 678.6 483.29999999999995 C 678.8000000000001 484.09999999999997 679.1 484.99999999999994 679.3000000000001 485.79999999999995 C 679.9000000000001 488.09999999999997 680.5000000000001 490.4 681.0000000000001 492.69999999999993 C 686.5000000000001 517.9 685.9000000000001 543.9999999999999 679.3000000000001 568.9 C 679 569.6 678.8 570.4 678.6 571.3 z" stroke-linecap="round" />
</g>
		<g transform="matrix(1 0 0 1 -0.17801073540579182 13.598706158849382)"  >
<ellipse style="stroke: none; stroke-width: 1; stroke-dasharray: none; stroke-linecap: butt; stroke-dashoffset: 0; stroke-linejoin: miter; stroke-miterlimit: 4; fill: rgb(248,253,255); fill-rule: nonzero; opacity: 1;"  paint-order="stroke"  cx="0" cy="0" rx="142.9" ry="128.7" />
</g>
		<g transform="matrix(1 0 0 1 -0.17801073540579182 13.598706158849382)"  >
<path style="stroke: none; stroke-width: 1; stroke-dasharray: none; stroke-linecap: butt; stroke-dashoffset: 0; stroke-linejoin: miter; stroke-miterlimit: 4; fill: rgb(0,0,0); fill-rule: nonzero; opacity: 1;"  paint-order="stroke"  transform=" translate(-523.2, -527.2)" d="M 523.2 658.4 C 443.00000000000006 658.4 377.80000000000007 599.5 377.80000000000007 527.2 C 377.80000000000007 454.9000000000001 443 396 523.2 396 C 603.4000000000001 396 668.6 454.8 668.6 527.2 C 668.6 599.6000000000001 603.4 658.4 523.2 658.4 z M 523.2 401 C 445.80000000000007 401 382.80000000000007 457.6 382.80000000000007 527.2 C 382.80000000000007 596.8000000000001 445.80000000000007 653.4000000000001 523.2 653.4000000000001 C 600.6 653.4000000000001 663.6 596.8000000000001 663.6 527.2 C 663.6 457.6 600.7 401 523.2 401 L 523.2 401 z" stroke-linecap="round" />
</g>
		<g transform="matrix(1 0 0 1 -0.17801073540579182 13.598706158849382)"  >
<ellipse style="stroke: none; stroke-width: 1; stroke-dasharray: none; stroke-linecap: butt; stroke-dashoffset: 0; stroke-linejoin: miter; stroke-miterlimit: 4; fill: rgb(0,0,0); fill-rule: nonzero; opacity: 1;"  paint-order="stroke"  cx="0" cy="0" rx="142.9" ry="107.2" />
</g>
		<g transform="matrix(1 0 0 1 170.72198926459407 13.648706158849336)"  >
<path style="stroke: none; stroke-width: 1; stroke-dasharray: none; stroke-linecap: butt; stroke-dashoffset: 0; stroke-linejoin: miter; stroke-miterlimit: 4; fill: rgb(248,253,255); fill-rule: nonzero; opacity: 1;"  paint-order="stroke"  transform=" translate(-694.0999999999999, -527.25)" d="M 686 571.3 L 676.3 571.3 C 666.3 571.3 658.1999999999999 563.1999999999999 658.1999999999999 553.1999999999999 L 658.1999999999999 501.29999999999995 C 658.1999999999999 491.29999999999995 666.3 483.19999999999993 676.3 483.19999999999993 L 686 483.19999999999993 C 710.3 483.19999999999993 730 502.8999999999999 730 527.3 L 730 527.3 C 730 551.5 710.4 571.2 686 571.3 C 686 571.3 686 571.3 686 571.3 z" stroke-linecap="round" />
</g>
		<g transform="matrix(1 0 0 1 170.81821388191452 13.598706158849382)"  >
<path style="stroke: none; stroke-width: 1; stroke-dasharray: none; stroke-linecap: butt; stroke-dashoffset: 0; stroke-linejoin: miter; stroke-miterlimit: 4; fill: rgb(0,0,0); fill-rule: nonzero; opacity: 1;"  paint-order="stroke"  transform=" translate(-694.1962246173204, -527.2)" d="M 722 497.8 C 713.2 487 700 480.7 686 480.7 L 676.3 480.7 C 670.8 480.7 665.5 482.9 661.5999999999999 486.8 C 660.1999999999999 488.2 658.9999999999999 489.8 658.0999999999999 491.6 L 658.0999999999999 491.6 L 657.9999999999999 491.70000000000005 C 656.4999999999999 494.6 655.5999999999999 497.90000000000003 655.6999999999999 501.30000000000007 L 655.6999999999999 553.2 C 655.6999999999999 556.5 656.4999999999999 559.8000000000001 658.0999999999999 562.7 C 658.0999999999999 562.7 658.0999999999999 562.8000000000001 658.1999999999999 562.8000000000001 L 658.1999999999999 562.8000000000001 C 658.6999999999999 563.7 659.1999999999999 564.6 659.9 565.4000000000001 C 660.5 566.2 661.1 566.9000000000001 661.8 567.6000000000001 C 665.6999999999999 571.5000000000001 670.9 573.7000000000002 676.5 573.7000000000002 L 686.2 573.7000000000002 C 711.9000000000001 573.7000000000002 732.7 552.9000000000002 732.7 527.2000000000002 C 732.5 516.5 728.8 506.1 722 497.8 L 722 497.8 z M 686 568.8 L 676.3 568.8 C 671.1999999999999 568.8 666.4 566.3 663.5 562 C 662.8 561 662.3 560 661.8 558.9 C 661.4 558 661.0999999999999 557 661 556 C 660.8 555.1 660.7 554.1 660.7 553.2 L 660.7 501.20000000000005 C 660.7 500.30000000000007 660.8000000000001 499.30000000000007 661 498.40000000000003 C 661.2 497.40000000000003 661.5 496.40000000000003 661.8 495.50000000000006 C 662.1999999999999 494.40000000000003 662.8 493.40000000000003 663.5 492.40000000000003 C 663.6 492.20000000000005 663.8 491.90000000000003 664 491.70000000000005 C 666.9 487.90000000000003 671.5 485.6 676.3 485.70000000000005 L 686.0999999999999 485.70000000000005 C 708.9999999999999 485.70000000000005 727.5999999999999 504.30000000000007 727.5999999999999 527.3000000000001 C 727.5 550.2 708.9 568.7 686 568.8 L 686 568.8 z" stroke-linecap="round" />
</g>
		<g transform="matrix(1 0 0 1 137.02198926459414 11.998706158849359)"  >
<ellipse style="stroke: none; stroke-width: 1; stroke-dasharray: none; stroke-linecap: butt; stroke-dashoffset: 0; stroke-linejoin: miter; stroke-miterlimit: 4; fill: rgb(248,253,255); fill-rule: nonzero; opacity: 1;"  paint-order="stroke"  cx="0" cy="0" rx="20.8" ry="20.1" />
</g>
		<g transform="matrix(1 0 0 1 136.97198926459407 11.898706158849336)"  >
<path style="stroke: none; stroke-width: 1; stroke-dasharray: none; stroke-linecap: butt; stroke-dashoffset: 0; stroke-linejoin: miter; stroke-miterlimit: 4; fill: rgb(0,0,0); fill-rule: nonzero; opacity: 1;"  paint-order="stroke"  transform=" translate(-660.3499999999999, -525.5)" d="M 660.4 548.1 C 647.5 548.1 637 538 637 525.5 C 637 513 647.5 502.9 660.4 502.9 C 673.3 502.9 683.6999999999999 513 683.6999999999999 525.5 C 683.6999999999999 538 673.2 548.1 660.4 548.1 z M 660.4 508 C 650.3 508 642.1 515.9 642.1 525.6 C 642.1 535.3000000000001 650.3000000000001 543.2 660.4 543.2 C 670.4999999999999 543.2 678.6999999999999 535.3000000000001 678.6999999999999 525.6 C 678.6999999999999 515.9 670.5 508 660.4 508 z" stroke-linecap="round" />
</g>
		<g transform="matrix(1 0 0 1 177.92198926459412 -1.0012938411506411)"  >
<ellipse style="stroke: none; stroke-width: 1; stroke-dasharray: none; stroke-linecap: butt; stroke-dashoffset: 0; stroke-linejoin: miter; stroke-miterlimit: 4; fill: rgb(0,0,0); fill-rule: nonzero; opacity: 1;"  paint-order="stroke"  cx="0" cy="0" rx="8.3" ry="8" />
</g>
		<g transform="matrix(1 0 0 1 177.92198926459412 28.19870615884929)"  >
<ellipse style="stroke: none; stroke-width: 1; stroke-dasharray: none; stroke-linecap: butt; stroke-dashoffset: 0; stroke-linejoin: miter; stroke-miterlimit: 4; fill: rgb(0,0,0); fill-rule: nonzero; opacity: 1;"  paint-order="stroke"  cx="0" cy="0" rx="8.3" ry="8" />
</g>
		<g transform="matrix(1 0 0 1 -170.97801073540586 13.648706158849336)"  >
<path style="stroke: none; stroke-width: 1; stroke-dasharray: none; stroke-linecap: butt; stroke-dashoffset: 0; stroke-linejoin: miter; stroke-miterlimit: 4; fill: rgb(248,253,255); fill-rule: nonzero; opacity: 1;"  paint-order="stroke"  transform=" translate(-352.4, -527.25)" d="M 360.5 571.3 L 370.2 571.3 C 380.2 571.3 388.3 563.1999999999999 388.3 553.1999999999999 L 388.3 501.29999999999995 C 388.3 491.29999999999995 380.2 483.19999999999993 370.2 483.19999999999993 L 360.5 483.19999999999993 C 336.2 483.19999999999993 316.5 502.8999999999999 316.5 527.3 L 316.5 527.3 C 316.5 551.5999999999999 336.1 571.3 360.4 571.3 C 360.4 571.3 360.4 571.3 360.5 571.3 z" stroke-linecap="round" />
</g>
		<g transform="matrix(1 0 0 1 -170.85000000000008 13.748706158849245)"  >
<path style="stroke: none; stroke-width: 1; stroke-dasharray: none; stroke-linecap: butt; stroke-dashoffset: 0; stroke-linejoin: miter; stroke-miterlimit: 4; fill: rgb(0,0,0); fill-rule: nonzero; opacity: 1;"  paint-order="stroke"  transform=" translate(-352.52801073540576, -527.3499999999999)" d="M 388.5 491.7 L 388.4 491.59999999999997 C 387.9 490.7 387.4 489.79999999999995 386.7 488.99999999999994 L 386.7 488.99999999999994 C 386.09999999999997 488.19999999999993 385.5 487.49999999999994 384.8 486.8999999999999 C 380.90000000000003 482.99999999999994 375.7 480.7999999999999 370.2 480.7999999999999 L 360.5 480.7999999999999 C 358.6 480.7999999999999 356.8 480.8999999999999 355 481.0999999999999 C 329.5 484.19999999999993 311.3 507.3999999999999 314.4 532.8999999999999 C 316.5 550.5999999999999 328.5 565.4999999999999 345.29999999999995 571.2999999999998 C 350.19999999999993 572.9999999999999 355.4 573.8999999999999 360.59999999999997 573.8999999999999 L 370.29999999999995 573.8999999999999 C 375.79999999999995 573.8999999999999 381.09999999999997 571.6999999999998 384.9 567.7999999999998 C 385.59999999999997 567.0999999999998 386.2 566.3999999999999 386.79999999999995 565.5999999999998 C 387.4 564.7999999999998 387.99999999999994 563.8999999999997 388.49999999999994 562.9999999999998 L 388.59999999999997 562.8999999999997 C 390.2 559.9999999999998 390.99999999999994 556.6999999999997 390.99999999999994 553.2999999999997 L 390.99999999999994 501.39999999999975 C 390.8 497.9 390 494.6 388.5 491.7 z M 385.8 553.3 C 385.8 554.1999999999999 385.7 555.1999999999999 385.5 556.0999999999999 C 385.1 558.3 384.2 560.3 383 562.0999999999999 C 380.1 566.3 375.3 568.8 370.2 568.8 L 360.5 568.8 C 357.4 568.8 354.3 568.5 351.2 567.8 C 328.8 562.8 314.7 540.5999999999999 319.7 518.1999999999999 C 323.5 501.0999999999999 337.59999999999997 488.29999999999995 354.9 485.99999999999994 C 356.7 485.79999999999995 358.59999999999997 485.59999999999997 360.4 485.59999999999997 L 370.09999999999997 485.59999999999997 C 375.2 485.59999999999997 379.99999999999994 488.09999999999997 382.9 492.29999999999995 C 384.2 494.09999999999997 385 496.09999999999997 385.4 498.29999999999995 C 385.59999999999997 499.19999999999993 385.7 500.09999999999997 385.7 501.09999999999997 L 385.7 553.3 z" stroke-linecap="round" />
</g>
		<g transform="matrix(1 0 0 1 -137.27801073540581 11.998706158849359)"  >
<ellipse style="stroke: none; stroke-width: 1; stroke-dasharray: none; stroke-linecap: butt; stroke-dashoffset: 0; stroke-linejoin: miter; stroke-miterlimit: 4; fill: rgb(248,253,255); fill-rule: nonzero; opacity: 1;"  paint-order="stroke"  cx="0" cy="0" rx="20.8" ry="20.1" />
</g>
		<g transform="matrix(1 0 0 1 -137.27801073540581 11.898706158849336)"  >
<path style="stroke: none; stroke-width: 1; stroke-dasharray: none; stroke-linecap: butt; stroke-dashoffset: 0; stroke-linejoin: miter; stroke-miterlimit: 4; fill: rgb(0,0,0); fill-rule: nonzero; opacity: 1;"  paint-order="stroke"  transform=" translate(-386.1, -525.5)" d="M 386.1 548.1 C 373.20000000000005 548.1 362.8 538 362.8 525.5 C 362.8 513 373.3 502.9 386.1 502.9 C 398.90000000000003 502.9 409.40000000000003 513 409.40000000000003 525.5 C 409.40000000000003 538 398.9 548.1 386.1 548.1 z M 386.1 508 C 376 508 367.8 515.9 367.8 525.6 C 367.8 535.3000000000001 376 543.2 386.1 543.2 C 396.20000000000005 543.2 404.40000000000003 535.3000000000001 404.40000000000003 525.6 C 404.40000000000003 515.9 396.2 508 386.1 508 z" stroke-linecap="round" />
</g>
		<g transform="matrix(1 0 0 1 -178.17801073540585 -1.0012938411506411)"  >
<ellipse style="stroke: none; stroke-width: 1; stroke-dasharray: none; stroke-linecap: butt; stroke-dashoffset: 0; stroke-linejoin: miter; stroke-miterlimit: 4; fill: rgb(0,0,0); fill-rule: nonzero; opacity: 1;"  paint-order="stroke"  cx="0" cy="0" rx="8.3" ry="8" />
</g>
		<g transform="matrix(1 0 0 1 -178.17801073540585 28.19870615884929)"  >
<ellipse style="stroke: none; stroke-width: 1; stroke-dasharray: none; stroke-linecap: butt; stroke-dashoffset: 0; stroke-linejoin: miter; stroke-miterlimit: 4; fill: rgb(0,0,0); fill-rule: nonzero; opacity: 1;"  paint-order="stroke"  cx="0" cy="0" rx="8.3" ry="8" />
</g>
		<g transform="matrix(1 0 0 1 -26.378010735405837 189.7987061588493)"  >
<circle style="stroke: none; stroke-width: 1; stroke-dasharray: none; stroke-linecap: butt; stroke-dashoffset: 0; stroke-linejoin: miter; stroke-miterlimit: 4; fill: rgb(0,0,0); fill-rule: nonzero; opacity: 1;"  paint-order="stroke"  cx="0" cy="0" r="4.6" />
</g>
		<g transform="matrix(1 0 0 1 -0.17801073540579182 189.7987061588493)"  >
<circle style="stroke: none; stroke-width: 1; stroke-dasharray: none; stroke-linecap: butt; stroke-dashoffset: 0; stroke-linejoin: miter; stroke-miterlimit: 4; fill: rgb(0,0,0); fill-rule: nonzero; opacity: 1;"  paint-order="stroke"  cx="0" cy="0" r="4.6" />
</g>
		<g transform="matrix(1 0 0 1 26.121989264594163 189.7987061588493)"  >
<circle style="stroke: none; stroke-width: 1; stroke-dasharray: none; stroke-linecap: butt; stroke-dashoffset: 0; stroke-linejoin: miter; stroke-miterlimit: 4; fill: rgb(0,0,0); fill-rule: nonzero; opacity: 1;"  paint-order="stroke"  cx="0" cy="0" r="4.6" />
</g>
		<g transform="matrix(1 0 0 1 26.17198926459423 13.548706158849427)"  >
<path style="stroke: none; stroke-width: 1; stroke-dasharray: none; stroke-linecap: butt; stroke-dashoffset: 0; stroke-linejoin: miter; stroke-miterlimit: 4; fill: rgb(248,253,255); fill-rule: nonzero; opacity: 1;"  paint-order="stroke"  transform=" translate(-549.5500000000001, -527.1500000000001)" d="M 632.7 527.2 C 632.7 545.6 622.5 563.4000000000001 603.9000000000001 577.3000000000001 C 583.1000000000001 592.9000000000001 555.0000000000001 601.5000000000001 524.9000000000001 601.5000000000001 C 503.80000000000007 601.5000000000001 483.7000000000001 597.3000000000001 466.4000000000001 589.4000000000001 C 481.7000000000001 595.0000000000001 497.9000000000001 597.8000000000001 514.2 597.7 C 542.8000000000001 597.7 569.4000000000001 589.5 589.2 574.7 C 606.8000000000001 561.5 616.5 544.6 616.5 527.1 C 616.5 509.6 606.8 492.70000000000005 589.2 479.5 C 569.5 464.7 542.8000000000001 456.5 514.2 456.5 C 497.90000000000003 456.4 481.70000000000005 459.3 466.40000000000003 464.9 C 483.70000000000005 457 503.8 452.79999999999995 524.9000000000001 452.79999999999995 C 555.1000000000001 452.79999999999995 583.1000000000001 461.4 603.9000000000001 476.99999999999994 C 622.5 491 632.7 508.8 632.7 527.2 z" stroke-linecap="round" />
</g>
		<g transform="matrix(1 0 0 1 -82.17801073540585 -28.101293841150664)"  >
<circle style="stroke: none; stroke-width: 1; stroke-dasharray: none; stroke-linecap: butt; stroke-dashoffset: 0; stroke-linejoin: miter; stroke-miterlimit: 4; fill: rgb(248,253,255); fill-rule: nonzero; opacity: 1;"  paint-order="stroke"  cx="0" cy="0" r="5.4" />
</g>
		<g transform="matrix(1 0 0 1 -98.67801073540585 -9.001293841150641)"  >
<circle style="stroke: none; stroke-width: 1; stroke-dasharray: none; stroke-linecap: butt; stroke-dashoffset: 0; stroke-linejoin: miter; stroke-miterlimit: 4; fill: rgb(248,253,255); fill-rule: nonzero; opacity: 1;"  paint-order="stroke"  cx="0" cy="0" r="10.2" />
</g>
</g>
</g>
		<g transform="matrix(0.45457149583842943 0 0 0.45457149583842943 0 2.842171e-14)"  >
<g style=""  paint-order="stroke"   >
		<g transform="matrix(1 0 0 1 -1.1368684e-13 85.5999999999998)"  >
<path style="stroke: none; stroke-width: 1; stroke-dasharray: none; stroke-linecap: butt; stroke-dashoffset: 0; stroke-linejoin: miter; stroke-miterlimit: 4; fill: rgb(0,0,0); fill-rule: nonzero; opacity: 1;"  paint-order="stroke"  transform=" translate(-535.613562176059, -615.9499999999998)" d="M 382.6 767.2 C 274.6 767.2 203.90000000000003 739.8000000000001 193.40000000000003 694 C 188.30000000000004 671.6 198.10000000000002 646.3 221.90000000000003 620.9 C 244.10000000000002 597.1 278.6 573.1 321.5 551.4 L 325.2 549.5 L 327.7 552.8 C 332.59999999999997 559.0999999999999 339.3 563.9 346.9 566.5 L 357 570 L 347.7 575.5 C 341.59999999999997 579.1 335.8 582.8 330.3 586.5 C 284.90000000000003 617.3 276.40000000000003 640.9 278.3 649 C 280.2 657.1 298 674.8 352.3 682.8 C 371.2 685.5 390.3 686.8 409.40000000000003 686.6999999999999 C 418.1 686.6999999999999 427.20000000000005 686.4999999999999 436.3 685.9999999999999 C 437.5 685.9999999999999 438.6 685.8999999999999 439.7 685.7999999999998 L 439.8 685.7999999999998 L 443.5 685.5999999999998 C 454.5 684.8999999999997 465.9 683.7999999999998 477.5 682.3999999999997 C 479.7 682.0999999999998 481.9 681.8999999999997 484 681.5999999999998 C 486.4 681.2999999999998 488.8 680.9999999999998 491.1 680.5999999999998 C 509.8 677.8999999999997 529 674.3999999999997 548 669.9999999999998 C 572.9 664.3999999999997 597.4 657.2999999999997 621.5 648.9999999999998 C 624.3 647.9999999999998 626.5 647.2999999999997 628.5 646.4999999999998 C 630.3 645.7999999999997 632.1 645.1999999999998 633.8 644.4999999999998 L 633.9 644.4999999999998 L 634.1999999999999 644.3999999999997 L 634.4 644.2999999999997 L 634.6 644.1999999999997 C 635.4 643.8999999999997 636.3000000000001 643.5999999999997 637.1 643.2999999999997 C 638.2 642.8999999999997 639.2 642.4999999999998 640.3000000000001 642.0999999999997 C 675.0000000000001 628.7999999999997 705.1 613.4999999999997 729.9000000000001 596.6999999999997 C 775.3000000000001 565.8999999999997 783.8000000000001 542.2999999999997 781.9000000000001 534.0999999999997 C 780.2 526.4999999999997 765.4000000000001 511.29999999999967 720.8000000000001 502.49999999999966 L 719.0000000000001 502.19999999999965 L 717.9000000000001 500.79999999999967 C 710.0000000000001 491.19999999999965 698.2 485.5999999999997 685.7 485.5999999999997 L 679 485.5999999999997 L 678 481.99999999999966 C 677 478.49999999999966 675.8 474.99999999999966 674.5 471.49999999999966 L 672.1 464.89999999999964 L 679.2 464.7999999999996 C 682.3000000000001 464.7999999999996 685.5 464.6999999999996 688.6 464.6999999999996 C 796.6 464.6999999999996 867.3 492.09999999999957 877.8 537.8999999999996 C 885.9 573.2999999999996 857.0999999999999 614.3999999999996 796.9 653.5999999999997 C 738 691.8999999999996 655.5999999999999 724.3999999999996 564.9 745.0999999999997 C 502 759.5 438.9 767.2 382.6 767.2 L 382.6 767.2 z" stroke-linecap="round" />
</g>
		<g transform="matrix(1 0 0 1 0.13902081937817456 85.66083243473918)"  >
<linearGradient id="SVGID_17_4_1237080" gradientUnits="userSpaceOnUse" gradientTransform="matrix(1 0 0 -1 0 1080)"  x1="197.1226" y1="464.0336" x2="874.3469" y2="464.0336">
<stop offset="0%" style="stop-color:rgb(218,24,134);stop-opacity: 1"/>
<stop offset="100%" style="stop-color:rgb(82,50,172);stop-opacity: 1"/>
</linearGradient>
<path style="stroke: none; stroke-width: 1; stroke-dasharray: none; stroke-linecap: butt; stroke-dashoffset: 0; stroke-linejoin: miter; stroke-miterlimit: 4; fill: url(#SVGID_17_4_1237080); fill-rule: nonzero; opacity: 1;"  paint-order="stroke"  transform=" translate(-535.7525829954373, -616.0108324347392)" d="M 564.1 740.3 C 377.70000000000005 782.8 214 761.5 198.40000000000003 692.9 C 188.60000000000002 650 239.10000000000002 598.6 323.80000000000007 555.8 C 327.20000000000005 560.1999999999999 331.4000000000001 563.9 336.1000000000001 566.8 C 273.4000000000001 601.9 245.80000000000007 640.6999999999999 253.70000000000007 674.0999999999999 C 267.4000000000001 732.3 397.6000000000001 741.1999999999999 558.6 703.3999999999999 C 719.5999999999999 665.5999999999998 833.1 597 819.4 538.8 C 811.4 504.69999999999993 768.1 484.29999999999995 694.1999999999999 481.4 C 691.4999999999999 480.9 688.6999999999999 480.7 685.9999999999999 480.7 L 683.0999999999999 480.7 C 681.9999999999999 477 680.8999999999999 473.4 679.4999999999999 469.9 C 785.4999999999999 468.4 862.5999999999999 493.09999999999997 873.0999999999999 539.1999999999999 C 888.8 607.8 750.4 697.8 564.1 740.3 z" stroke-linecap="round" />
</g>
		<g transform="matrix(1 0 0 1 1.0758446971677813 76.73557480209467)"  >
<linearGradient id="SVGID_18_5_1237081" gradientUnits="userSpaceOnUse" gradientTransform="matrix(1 0 0 -1 0 1080)"  x1="247.7412" y1="393.7744" x2="830.6112" y2="530.9144">
<stop offset="0%" style="stop-color:rgb(82,50,172);stop-opacity: 1"/>
<stop offset="100%" style="stop-color:rgb(218,24,134);stop-opacity: 1"/>
</linearGradient>
<path style="stroke: none; stroke-width: 1; stroke-dasharray: none; stroke-linecap: butt; stroke-dashoffset: 0; stroke-linejoin: miter; stroke-miterlimit: 4; fill: url(#SVGID_18_5_1237081); fill-rule: nonzero; opacity: 1;"  paint-order="stroke"  transform=" translate(-536.6894068732269, -607.0855748020947)" d="M 561.4 712.2 C 400.4 750.1 258.9 733.6 245.2 675.3000000000001 C 237.29999999999998 641.8000000000001 273.4 601.9000000000001 336.1 566.8000000000001 C 339 568.6 342.1 570.1 345.3 571.2 C 339.1 574.9000000000001 333.2 578.6 327.6 582.4000000000001 C 283.1 612.5000000000001 270.70000000000005 637.8000000000001 273.5 650.2 C 276.29999999999995 662.6 298.5 680 351.6 687.9000000000001 C 377.1 691.7 405.8 692.7 436.6 691.1000000000001 C 437.8 691.1000000000001 439 691.0000000000001 440.1 690.9000000000001 L 443.90000000000003 690.7 C 455.1 690 466.50000000000006 688.9000000000001 478.20000000000005 687.5 L 484.80000000000007 686.7 C 487.20000000000005 686.4000000000001 489.6000000000001 686 492.00000000000006 685.7 C 510.80000000000007 683 529.9000000000001 679.5 549.3000000000001 675.1 C 574.4000000000001 669.4 599.1 662.4 623.4000000000001 654 C 625.8000000000001 653.2 628.1000000000001 652.3 630.5000000000001 651.5 C 632.3000000000001 650.9 634.1000000000001 650.2 635.9000000000001 649.5 C 636.2 649.4 636.4000000000001 649.3 636.7 649.2 C 637.6 648.9000000000001 638.4000000000001 648.6 639.3000000000001 648.2 C 640.4000000000001 647.8000000000001 641.5000000000001 647.4000000000001 642.5000000000001 647 C 677.1000000000001 633.8 707.9000000000001 618.2 733.0000000000001 601.2 C 777.5000000000001 571.1 789.9000000000001 545.8000000000001 787.1000000000001 533.4000000000001 C 784.5000000000001 522.0000000000001 765.8000000000002 506.6000000000001 722.1000000000001 498.0000000000001 C 715.1000000000001 489.4000000000001 705.2000000000002 483.60000000000014 694.3000000000002 481.60000000000014 C 768.3000000000002 484.5000000000001 820.1000000000001 504.3000000000001 828.2000000000002 538.4000000000001 C 841.8 596.4 722.4 674.3 561.4 712.2 z" stroke-linecap="round" />
</g>
		<g transform="matrix(1 0 0 1 -12.01356217605894 -133.10000000000002)"  >
<linearGradient id="SVGID_19_6_1237082" gradientUnits="userSpaceOnUse" gradientTransform="matrix(1 0 0 -1 0 1080)"  x1="523.62" y1="786.49" x2="523.62" y2="579">
<stop offset="0%" style="stop-color:rgb(218,24,134);stop-opacity: 1"/>
<stop offset="100%" style="stop-color:rgb(82,50,172);stop-opacity: 1"/>
</linearGradient>
<path style="stroke: none; stroke-width: 1; stroke-dasharray: none; stroke-linecap: butt; stroke-dashoffset: 0; stroke-linejoin: miter; stroke-miterlimit: 4; fill: url(#SVGID_19_6_1237082); fill-rule: nonzero; opacity: 1;"  paint-order="stroke"  transform=" translate(-523.6000000000001, -397.25)" d="M 291.1 480 C 282.20000000000005 483.1 276.20000000000005 491.5 276.20000000000005 501 C 276.20000000000005 491.5 270.30000000000007 483.1 261.30000000000007 480 C 270.20000000000005 476.9 276.20000000000005 468.5 276.20000000000005 459.1 C 276.2 468.5 282.2 476.9 291.1 480 z M 400.7 338.9 C 400.7 344.4 397.2 349.29999999999995 392 351.09999999999997 C 397.2 352.9 400.7 357.79999999999995 400.7 363.29999999999995 C 400.7 357.79999999999995 404.2 352.9 409.4 351.09999999999997 C 404.2 349.3 400.7 344.4 400.7 338.9 z M 777.2 367.6 C 777.2 373.1 773.7 378 768.5 379.8 C 773.7 381.6 777.2 386.5 777.2 392 C 777.2 386.5 780.7 381.6 785.9000000000001 379.8 C 780.7 378 777.2 373.1 777.2 367.6 z M 738.2 394.6 C 738.2 404 732.2 412.40000000000003 723.3000000000001 415.5 C 732.2 418.6 738.2 427 738.2 436.4 C 738.2 427 744.2 418.59999999999997 753.1 415.5 C 744.2 412.4 738.2 404 738.2 394.6 L 738.2 394.6 z M 472.8 293.5 C 472.8 302.9 466.90000000000003 311.3 458 314.4 C 466.9 317.5 472.9 325.9 472.9 335.29999999999995 C 472.9 325.9 478.9 317.49999999999994 487.79999999999995 314.4 C 478.8 311.3 472.8 302.9 472.8 293.5 z M 663.6 319.9 C 652.6 319.9 643.6 328.9 643.6 339.9 C 643.6 350.9 652.6 359.9 663.6 359.9 C 674.6 359.9 683.6 350.9 683.6 339.9 C 683.6 328.9 674.7 319.9 663.6 319.9 z M 291.1 359.8 C 280.1 359.8 271.1 368.8 271.1 379.8 C 271.1 390.8 280.1 399.8 291.1 399.8 C 302.1 399.8 311.1 390.8 311.1 379.8 C 311.1 368.8 302.1 359.8 291.1 359.8 z" stroke-linecap="round" />
</g>
</g>
</g>
</g>
</g>
</svg>